# xmcd
#
# Track frame offsets: 
#        300
#        21604
#        43718
#        78729
#        95225
#        123934
#        146275
#
# Disc length: 2150 seconds
#
# Revision: 3
# Processed by: cddbd v1.5.2PL0 Copyright (c) Steve Scherf et al.
# Submitted via: ExactAudioCopy v1.0b1
#
DISCID=62086207
DTITLE=Big Mama Thornton - Sassy Mama!
DYEAR=1975
DGENRE=Blues
TTITLE0=Rolling Stone
TTITLE1=Lost City
TTITLE2=Mr Cool
TTITLE3=Big Mama's New Love
TTITLE4=Private Number
TTITLE5=Sassy Mama
TTITLE6=Everybody's Happy (But Me)
EXTD=
EXTT0=
EXTT1=
EXTT2=
EXTT3=
EXTT4=
EXTT5=
EXTT6=
PLAYORDER=
